<svg width="16" height="16" viewBox="0 0 16 16" fill="none" xmlns="http://www.w3.org/2000/svg">
<path d="M14 1.5H2C1.72386 1.5 1.5 1.72386 1.5 2V14C1.5 14.2761 1.72386 14.5 2 14.5H14C14.2761 14.5 14.5 14.2761 14.5 14V2C14.5 1.72386 14.2761 1.5 14 1.5Z" stroke="#333333"/>
<path d="M4.5 12.5L11.5 3.5" stroke="#333333" stroke-linecap="round" stroke-linejoin="round"/>
<path d="M5 6.5C5.82843 6.5 6.5 5.82843 6.5 5C6.5 4.17157 5.82843 3.5 5 3.5C4.17157 3.5 3.5 4.17157 3.5 5C3.5 5.82843 4.17157 6.5 5 6.5Z" stroke="#333333" stroke-linecap="round" stroke-linejoin="round"/>
<path d="M11 12.5C11.8284 12.5 12.5 11.8284 12.5 11C12.5 10.1716 11.8284 9.5 11 9.5C10.1716 9.5 9.5 10.1716 9.5 11C9.5 11.8284 10.1716 12.5 11 12.5Z" stroke="#333333" stroke-linecap="round" stroke-linejoin="round"/>
</svg>
